# xmcd CD database file
#
# Track frame offsets:
#	150
#	26060
#	43145
#	62955
#	87125
#	115505
#	156502
#	177587
#
# Disc length: 2655 seconds
#
# Revision: 0
# Processed by: cddbd v1.5.1PL0 Copyright (c) Steve Scherf et al.
# Submitted via: CDex 1.51
#
DISCID=6a0a5d08
DTITLE=RISINGTONES - RISE YOU UP！
DYEAR=2005
DGENRE=JPop
TTITLE0=潮騒
TTITLE1=潤燈華
TTITLE2=テノヒラ
TTITLE3=テノヒラ　DUB
TTITLE4=涙雨
TTITLE5=アカトキイロトミドリイロ
TTITLE6=きっと
TTITLE7=きっと　DUB
EXTD=YEAR: 2005.06.02
EXTT0=
EXTT1=
EXTT2=
EXTT3=
EXTT4=
EXTT5=
EXTT6=
EXTT7=
PLAYORDER=
